<svg width="272" height="61" viewBox="0 0 272 61" fill="none" xmlns="http://www.w3.org/2000/svg">
<path d="M84.464 30.816C81.9027 35.7347 79.4207 40.8233 77.018 46.082C76.882 46.422 76.7007 46.66 76.474 46.796C76.2473 46.9093 75.794 47.0567 75.114 47.238C74.57 47.3967 74.1053 47.5667 73.72 47.748C73.3573 47.9293 73.0967 48.0653 72.938 48.156C72.802 48.2467 72.6773 48.292 72.564 48.292C72.4053 48.292 72.326 48.2353 72.326 48.122C72.326 48.0767 72.3713 47.9973 72.462 47.884C72.5527 47.7933 72.7 47.612 72.904 47.34C73.108 47.068 73.3233 46.762 73.55 46.422C74.5247 44.926 75.488 43.294 76.44 41.526C77.4147 39.758 78.4573 37.786 79.568 35.61C80.7013 33.4113 81.54 31.802 82.084 30.782C82.3333 30.3513 82.8433 29.3427 83.614 27.756C84.4073 26.1467 84.9173 25.1493 85.144 24.764C86.6173 22.2707 88.4647 20.3327 90.686 18.95C92.9073 17.5673 94.9813 16.876 96.908 16.876C98.268 16.876 99.4127 17.3293 100.342 18.236C101.271 19.1427 101.736 20.344 101.736 21.84C101.736 25.3987 98.6987 28.334 92.624 30.646L92.658 30.714C93.1793 30.6913 93.542 30.68 93.746 30.68C95.2873 30.68 96.636 31.258 97.792 32.414C98.9707 33.5473 99.56 34.828 99.56 36.256C99.56 39.248 98.1433 41.8773 95.31 44.144C92.4993 46.388 89.19 47.51 85.382 47.51C83.4553 47.51 81.846 47.2607 80.554 46.762C79.262 46.2633 78.616 45.7533 78.616 45.232C78.616 45.1187 78.786 44.8353 79.126 44.382C79.194 44.2913 79.2847 44.144 79.398 43.94C79.534 43.736 79.6473 43.566 79.738 43.43C79.8287 43.294 79.8967 43.226 79.942 43.226C80.01 43.226 80.044 43.2713 80.044 43.362C80.044 44.0873 80.588 44.824 81.676 45.572C82.7867 46.32 83.9993 46.694 85.314 46.694C88.1927 46.694 90.788 45.5267 93.1 43.192C95.412 40.8347 96.568 38.2507 96.568 35.44C96.568 34.1027 96.1373 33.0827 95.276 32.38C94.4373 31.6773 93.508 31.326 92.488 31.326C91.74 31.326 91.1167 31.4733 90.618 31.768C90.142 32.0627 89.7227 32.21 89.36 32.21C89.2467 32.21 89.054 32.108 88.782 31.904C88.5327 31.7 88.408 31.5413 88.408 31.428C88.408 31.292 88.4987 31.19 88.68 31.122C88.8613 31.054 89.122 30.9973 89.462 30.952C89.8247 30.9067 90.074 30.8613 90.21 30.816C92.318 30.1813 94.2673 29.116 96.058 27.62C97.8713 26.1013 98.778 24.4127 98.778 22.554C98.778 21.262 98.3927 20.2307 97.622 19.46C96.8513 18.6893 95.888 18.304 94.732 18.304C93.6213 18.304 92.6693 18.5647 91.876 19.086C91.0827 19.5847 90.1987 20.5933 89.224 22.112C88.476 23.2907 86.8893 26.192 84.464 30.816ZM108.523 37.548C107.117 40.2907 106.301 42.0473 106.075 42.818C105.893 43.4527 105.803 44.076 105.803 44.688C105.803 45.2547 105.984 45.742 106.347 46.15C106.709 46.558 107.185 46.762 107.775 46.762C108.953 46.762 110.075 46.5467 111.141 46.116C112.229 45.6627 113.305 44.9487 114.371 43.974C115.436 42.9767 116.207 42.206 116.683 41.662C117.181 41.118 117.929 40.2227 118.927 38.976C119.085 38.7947 119.199 38.6587 119.267 38.568C119.357 38.432 119.448 38.364 119.539 38.364C119.629 38.364 119.675 38.4093 119.675 38.5C119.675 38.5453 119.652 38.6133 119.607 38.704C118.655 39.996 117.759 41.1067 116.921 42.036C116.082 42.9653 115.096 43.906 113.963 44.858C112.852 45.81 111.639 46.5353 110.325 47.034C109.033 47.5327 107.684 47.782 106.279 47.782C105.281 47.782 104.488 47.544 103.899 47.068C103.332 46.6147 103.049 45.9573 103.049 45.096C103.049 44.2573 103.241 43.3733 103.627 42.444C104.012 41.5147 104.669 40.2227 105.599 38.568C106.868 36.324 109.135 32.2667 112.399 26.396C113.305 24.7867 113.963 23.5967 114.371 22.826C114.801 22.0553 115.447 20.82 116.309 19.12C117.193 17.3973 117.839 15.9127 118.247 14.666C118.677 13.4193 118.893 12.3767 118.893 11.538C118.893 10.8127 118.677 10.1667 118.247 9.6C117.839 9.03333 117.34 8.75 116.751 8.75C115.663 8.75 114.359 9.362 112.841 10.586C112.433 10.9033 112.217 11.062 112.195 11.062C112.081 11.062 112.025 11.0053 112.025 10.892C112.025 10.824 112.24 10.6087 112.671 10.246C114.688 8.65933 116.524 7.866 118.179 7.866C119.357 7.866 120.196 8.25133 120.695 9.022C121.193 9.77 121.443 10.6313 121.443 11.606C121.443 12.5127 121.057 13.8613 120.287 15.652C119.539 17.42 118.757 19.0633 117.941 20.582C117.125 22.078 115.855 24.322 114.133 27.314C112.319 30.4647 110.449 33.876 108.523 37.548ZM127.642 31.666C128.934 31.666 129.954 32.074 130.702 32.89C131.473 33.706 131.858 34.794 131.858 36.154C131.858 37.65 131.484 39.112 130.736 40.54C130.011 41.968 129.082 43.192 127.948 44.212C126.815 45.2093 125.546 46.014 124.14 46.626C122.758 47.238 121.432 47.544 120.162 47.544C118.893 47.544 117.85 47.136 117.034 46.32C116.218 45.4813 115.81 44.4273 115.81 43.158C115.81 41.2993 116.434 39.4633 117.68 37.65C118.95 35.8367 120.502 34.386 122.338 33.298C124.174 32.21 125.942 31.666 127.642 31.666ZM126.656 32.414C125.455 32.414 124.231 32.958 122.984 34.046C121.738 35.134 120.706 36.494 119.89 38.126C119.097 39.7353 118.7 41.288 118.7 42.784C118.7 43.8947 118.938 44.824 119.414 45.572C119.89 46.2973 120.491 46.66 121.216 46.66C123.052 46.66 124.82 45.504 126.52 43.192C128.243 40.8573 129.104 38.5227 129.104 36.188C129.104 35.0773 128.878 34.1707 128.424 33.468C127.994 32.7653 127.404 32.414 126.656 32.414ZM146.668 31.666C147.96 31.666 148.98 32.074 149.728 32.89C150.498 33.706 150.884 34.794 150.884 36.154C150.884 37.65 150.51 39.112 149.762 40.54C149.036 41.968 148.107 43.192 146.974 44.212C145.84 45.2093 144.571 46.014 143.166 46.626C141.783 47.238 140.457 47.544 139.188 47.544C137.918 47.544 136.876 47.136 136.06 46.32C135.244 45.4813 134.836 44.4273 134.836 43.158C134.836 41.2993 135.459 39.4633 136.706 37.65C137.975 35.8367 139.528 34.386 141.364 33.298C143.2 32.21 144.968 31.666 146.668 31.666ZM145.682 32.414C144.48 32.414 143.256 32.958 142.01 34.046C140.763 35.134 139.732 36.494 138.916 38.126C138.122 39.7353 137.726 41.288 137.726 42.784C137.726 43.8947 137.964 44.824 138.44 45.572C138.916 46.2973 139.516 46.66 140.242 46.66C142.078 46.66 143.846 45.504 145.546 43.192C147.268 40.8573 148.13 38.5227 148.13 36.188C148.13 35.0773 147.903 34.1707 147.45 33.468C147.019 32.7653 146.43 32.414 145.682 32.414ZM161.987 33.026C161.987 33.8873 161.659 34.93 161.001 36.154C161.024 36.1313 161.375 35.814 162.055 35.202C162.735 34.5673 163.291 34.0687 163.721 33.706C164.175 33.3433 164.73 32.9693 165.387 32.584C166.045 32.1987 166.6 32.006 167.053 32.006C167.439 32.006 167.745 32.1533 167.971 32.448C168.198 32.7427 168.311 33.128 168.311 33.604C168.311 33.9893 168.243 34.4313 168.107 34.93C167.994 35.406 167.881 35.7913 167.767 36.086L167.597 36.528C167.733 36.392 167.903 36.222 168.107 36.018C168.334 35.7913 168.765 35.406 169.399 34.862C170.057 34.318 170.691 33.842 171.303 33.434C171.915 33.0033 172.607 32.618 173.377 32.278C174.171 31.938 174.873 31.768 175.485 31.768C176.052 31.768 176.528 31.9267 176.913 32.244C177.299 32.5613 177.491 32.9693 177.491 33.468C177.491 34.0573 177.095 34.9753 176.301 36.222C175.508 37.446 174.635 38.7267 173.683 40.064C172.754 41.3787 171.893 43.0673 171.099 45.13C170.306 47.17 169.909 49.1987 169.909 51.216C169.909 52.9387 170.374 54.4573 171.303 55.772C172.233 57.1093 173.581 57.778 175.349 57.778C177.095 57.778 179.01 57.03 181.095 55.534C183.181 54.038 184.801 52.44 185.957 50.74C186.048 50.604 186.139 50.536 186.229 50.536C186.32 50.536 186.365 50.5813 186.365 50.672C186.365 50.7173 186.343 50.7853 186.297 50.876C184.711 53.0293 182.784 54.8767 180.517 56.418C178.273 57.982 176.143 58.764 174.125 58.764C172.244 58.764 170.68 58.0953 169.433 56.758C168.209 55.4207 167.597 53.7093 167.597 51.624C167.597 49.788 167.937 47.884 168.617 45.912C169.297 43.94 170.045 42.2967 170.861 40.982C171.677 39.6447 172.425 38.364 173.105 37.14C173.785 35.8933 174.125 34.9867 174.125 34.42C174.125 33.8307 173.853 33.536 173.309 33.536C171.813 33.536 169.66 34.998 166.849 37.922C166.827 37.9673 166.736 38.0693 166.577 38.228C166.441 38.364 166.351 38.4547 166.305 38.5C166.26 38.5453 166.169 38.636 166.033 38.772C165.897 38.8853 165.795 38.976 165.727 39.044C165.659 39.0893 165.557 39.1687 165.421 39.282C165.308 39.3727 165.195 39.4407 165.081 39.486C164.991 39.5087 164.877 39.554 164.741 39.622C164.628 39.6673 164.503 39.7013 164.367 39.724C164.254 39.7467 164.129 39.758 163.993 39.758C163.925 39.758 163.891 39.724 163.891 39.656C163.891 39.52 163.982 39.3953 164.163 39.282C164.345 39.146 164.458 39.01 164.503 38.874C165.433 36.834 165.897 35.4513 165.897 34.726C165.897 34.0913 165.637 33.774 165.115 33.774C164.526 33.774 163.801 34.148 162.939 34.896C162.101 35.6213 161.296 36.5053 160.525 37.548C159.415 38.9987 157.715 42.0473 155.425 46.694C155.357 46.8527 155.21 46.9547 154.983 47C154.779 47.0227 154.519 47.034 154.201 47.034C153.884 47.034 153.623 47.068 153.419 47.136L152.297 47.544C152.184 47.544 152.127 47.4873 152.127 47.374C152.127 47.3513 152.139 47.3173 152.161 47.272C152.184 47.2493 152.218 47.204 152.263 47.136C152.331 47.0907 152.388 47.034 152.433 46.966C153.431 45.5153 155.063 42.716 157.329 38.568C158.689 36.1427 159.369 34.42 159.369 33.4C159.369 32.6747 159.143 32.312 158.689 32.312C158.168 32.312 157.329 32.6973 156.173 33.468C155.969 33.604 155.856 33.672 155.833 33.672C155.743 33.672 155.697 33.6267 155.697 33.536C155.697 33.4453 155.765 33.3547 155.901 33.264C157.601 31.9947 158.961 31.36 159.981 31.36C160.639 31.36 161.137 31.5187 161.477 31.836C161.817 32.1307 161.987 32.5273 161.987 33.026ZM179.701 42.376C179.701 42.24 179.973 41.9 180.517 41.356C180.835 41.0387 181.152 40.6873 181.469 40.302C181.809 39.894 182.059 39.588 182.217 39.384C182.399 39.1573 182.512 39.044 182.557 39.044C182.693 39.044 182.761 39.0893 182.761 39.18L182.455 39.656C182.251 39.996 182.149 40.2907 182.149 40.54C182.149 41.492 182.319 42.342 182.659 43.09C183.022 43.838 183.464 44.4387 183.985 44.892C184.529 45.3227 185.141 45.6853 185.821 45.98C186.501 46.2747 187.136 46.4787 187.725 46.592C188.337 46.6827 188.927 46.728 189.493 46.728C192.1 46.728 194.219 45.9007 195.851 44.246C197.506 42.5913 198.333 40.9253 198.333 39.248C198.333 38.2507 198.095 37.242 197.619 36.222C197.143 35.202 196.554 34.25 195.851 33.366C195.171 32.482 194.48 31.6093 193.777 30.748C193.097 29.8867 192.519 28.98 192.043 28.028C191.567 27.076 191.329 26.1693 191.329 25.308C191.329 23.812 191.941 22.3953 193.165 21.058C194.412 19.7207 195.885 18.6893 197.585 17.964C199.308 17.2387 200.94 16.876 202.481 16.876C203.207 16.876 203.875 16.978 204.487 17.182C205.099 17.386 205.598 17.6353 205.983 17.93C206.369 18.2247 206.697 18.5307 206.969 18.848C207.241 19.1653 207.434 19.4373 207.547 19.664C207.661 19.8907 207.717 20.0493 207.717 20.14C207.717 20.2307 207.638 20.344 207.479 20.48C207.321 20.616 207.094 20.786 206.799 20.99C206.505 21.194 206.289 21.3413 206.153 21.432C205.768 21.704 205.564 21.84 205.541 21.84C205.405 21.84 205.337 21.772 205.337 21.636C205.337 20.82 204.85 20.072 203.875 19.392C202.923 18.712 201.733 18.372 200.305 18.372C198.265 18.372 196.656 18.9387 195.477 20.072C194.299 21.1827 193.709 22.452 193.709 23.88C193.709 24.696 193.959 25.5573 194.457 26.464C194.979 27.3707 195.602 28.2433 196.327 29.082C197.053 29.9207 197.778 30.7707 198.503 31.632C199.229 32.4933 199.841 33.4227 200.339 34.42C200.861 35.3947 201.121 36.3467 201.121 37.276C201.121 39.0893 200.373 40.8573 198.877 42.58C197.381 44.3027 195.557 45.6627 193.403 46.66C191.25 47.6573 189.176 48.156 187.181 48.156C185.867 48.156 184.699 47.9633 183.679 47.578C182.659 47.2153 181.877 46.7393 181.333 46.15C180.789 45.538 180.381 44.9147 180.109 44.28C179.837 43.6453 179.701 43.0107 179.701 42.376ZM211.218 37.684C212.963 35.848 214.958 34.3973 217.202 33.332C219.468 32.244 221.259 31.7 222.574 31.7C223.299 31.7 223.662 31.8133 223.662 32.04C223.662 32.1533 223.458 32.482 223.05 33.026C222.642 33.57 222.392 33.842 222.302 33.842C222.211 33.842 222.143 33.808 222.098 33.74C222.075 33.6493 222.03 33.57 221.962 33.502C221.916 33.4113 221.735 33.332 221.418 33.264C221.1 33.1733 220.658 33.128 220.092 33.128C218.913 33.128 217.621 33.5133 216.216 34.284C214.833 35.0547 213.632 36.0973 212.612 37.412C211.592 38.7267 211.082 40.064 211.082 41.424C211.082 41.9227 211.127 42.41 211.218 42.886C211.308 43.3393 211.49 43.872 211.762 44.484C212.034 45.0733 212.498 45.5493 213.156 45.912C213.836 46.2747 214.663 46.456 215.638 46.456C217.927 46.456 220.432 45.4133 223.152 43.328C224.557 42.24 226.098 40.6533 227.776 38.568C227.866 38.432 227.957 38.364 228.048 38.364C228.138 38.364 228.184 38.4093 228.184 38.5C228.184 38.5453 228.161 38.6133 228.116 38.704C226.574 40.7893 225.01 42.444 223.424 43.668C220.341 46.2973 217.292 47.612 214.278 47.612C212.442 47.612 211.059 47.17 210.13 46.286C209.223 45.402 208.77 44.1893 208.77 42.648L208.804 42.24H208.77C207.75 44.2347 207.036 45.6967 206.628 46.626C206.582 46.7393 206.446 46.8187 206.22 46.864C206.016 46.9093 205.744 46.9433 205.404 46.966C205.064 46.9887 204.792 47.0453 204.588 47.136C203.862 47.408 203.477 47.544 203.432 47.544C203.25 47.544 203.16 47.4647 203.16 47.306C203.16 47.2607 203.216 47.1473 203.33 46.966C203.466 46.7847 203.647 46.5353 203.874 46.218C204.1 45.878 204.293 45.572 204.452 45.3L208.396 38.568C208.94 37.6613 211.206 33.604 215.196 26.396C216.102 24.7867 216.76 23.5967 217.168 22.826C217.598 22.0553 218.244 20.82 219.106 19.12C219.99 17.3973 220.636 15.9127 221.044 14.666C221.474 13.4193 221.69 12.3767 221.69 11.538C221.69 10.8127 221.474 10.1667 221.044 9.6C220.636 9.03333 220.137 8.75 219.548 8.75C218.46 8.75 217.156 9.362 215.638 10.586C215.23 10.9033 215.014 11.062 214.992 11.062C214.878 11.062 214.822 11.0053 214.822 10.892C214.822 10.824 215.037 10.6087 215.468 10.246C217.485 8.65933 219.321 7.866 220.976 7.866C222.154 7.866 222.993 8.25133 223.492 9.022C223.99 9.77 224.24 10.6313 224.24 11.606C224.24 12.9207 223.628 14.8133 222.404 17.284C221.202 19.732 219.378 23.0753 216.93 27.314C214.89 30.85 212.986 34.3067 211.218 37.684ZM235.674 22.044C236.06 22.044 236.354 22.1913 236.558 22.486C236.762 22.7807 236.864 23.1207 236.864 23.506C236.864 24.05 236.66 24.5373 236.252 24.968C235.867 25.376 235.425 25.58 234.926 25.58C234.564 25.58 234.258 25.4327 234.008 25.138C233.782 24.8433 233.668 24.4807 233.668 24.05C233.668 23.6193 233.884 23.1773 234.314 22.724C234.745 22.2707 235.198 22.044 235.674 22.044ZM232.444 33.026C232.444 33.978 231.583 35.848 229.86 38.636C228.138 41.424 227.276 43.294 227.276 44.246C227.276 45.4927 228.126 46.116 229.826 46.116C231.164 46.116 233.068 45.1867 235.538 43.328C236.944 42.24 238.485 40.6533 240.162 38.568C240.253 38.432 240.344 38.364 240.434 38.364C240.525 38.364 240.57 38.4093 240.57 38.5C240.57 38.5453 240.548 38.6133 240.502 38.704C238.961 40.7893 237.397 42.444 235.81 43.668C234.654 44.5973 233.351 45.436 231.9 46.184C230.472 46.9093 229.124 47.272 227.854 47.272C226.857 47.272 226.052 47.0567 225.44 46.626C224.851 46.1727 224.556 45.5153 224.556 44.654C224.556 43.6793 224.987 42.3873 225.848 40.778C226.732 39.1687 227.616 37.6613 228.5 36.256C229.384 34.8507 229.826 33.8987 229.826 33.4C229.826 32.6747 229.6 32.312 229.146 32.312C228.625 32.312 227.786 32.6973 226.63 33.468C226.426 33.604 226.313 33.672 226.29 33.672C226.2 33.672 226.154 33.6267 226.154 33.536C226.154 33.4453 226.222 33.3547 226.358 33.264C228.058 31.9947 229.418 31.36 230.438 31.36C231.096 31.36 231.594 31.5187 231.934 31.836C232.274 32.1307 232.444 32.5273 232.444 33.026ZM243.095 37.548C241.69 40.2907 240.874 42.0473 240.647 42.818C240.466 43.4527 240.375 44.076 240.375 44.688C240.375 45.2547 240.556 45.742 240.919 46.15C241.282 46.558 241.758 46.762 242.347 46.762C243.526 46.762 244.648 46.5467 245.713 46.116C246.801 45.6627 247.878 44.9487 248.943 43.974C250.008 42.9767 250.779 42.206 251.255 41.662C251.754 41.118 252.502 40.2227 253.499 38.976C253.658 38.7947 253.771 38.6587 253.839 38.568C253.93 38.432 254.02 38.364 254.111 38.364C254.202 38.364 254.247 38.4093 254.247 38.5C254.247 38.5453 254.224 38.6133 254.179 38.704C253.227 39.996 252.332 41.1067 251.493 42.036C250.654 42.9653 249.668 43.906 248.535 44.858C247.424 45.81 246.212 46.5353 244.897 47.034C243.605 47.5327 242.256 47.782 240.851 47.782C239.854 47.782 239.06 47.544 238.471 47.068C237.904 46.6147 237.621 45.9573 237.621 45.096C237.621 44.2573 237.814 43.3733 238.199 42.444C238.584 41.5147 239.242 40.2227 240.171 38.568C241.44 36.324 243.707 32.2667 246.971 26.396C247.878 24.7867 248.535 23.5967 248.943 22.826C249.374 22.0553 250.02 20.82 250.881 19.12C251.765 17.3973 252.411 15.9127 252.819 14.666C253.25 13.4193 253.465 12.3767 253.465 11.538C253.465 10.8127 253.25 10.1667 252.819 9.6C252.411 9.03333 251.912 8.75 251.323 8.75C250.235 8.75 248.932 9.362 247.413 10.586C247.005 10.9033 246.79 11.062 246.767 11.062C246.654 11.062 246.597 11.0053 246.597 10.892C246.597 10.824 246.812 10.6087 247.243 10.246C249.26 8.65933 251.096 7.866 252.751 7.866C253.93 7.866 254.768 8.25133 255.267 9.022C255.766 9.77 256.015 10.6313 256.015 11.606C256.015 12.5127 255.63 13.8613 254.859 15.652C254.111 17.42 253.329 19.0633 252.513 20.582C251.697 22.078 250.428 24.322 248.705 27.314C246.892 30.4647 245.022 33.876 243.095 37.548ZM256.775 37.548C255.369 40.2907 254.553 42.0473 254.327 42.818C254.145 43.4527 254.055 44.076 254.055 44.688C254.055 45.2547 254.236 45.742 254.599 46.15C254.961 46.558 255.437 46.762 256.027 46.762C257.205 46.762 258.327 46.5467 259.393 46.116C260.481 45.6627 261.557 44.9487 262.623 43.974C263.688 42.9767 264.459 42.206 264.935 41.662C265.433 41.118 266.181 40.2227 267.179 38.976C267.337 38.7947 267.451 38.6587 267.519 38.568C267.609 38.432 267.7 38.364 267.791 38.364C267.881 38.364 267.927 38.4093 267.927 38.5C267.927 38.5453 267.904 38.6133 267.859 38.704C266.907 39.996 266.011 41.1067 265.173 42.036C264.334 42.9653 263.348 43.906 262.215 44.858C261.104 45.81 259.891 46.5353 258.577 47.034C257.285 47.5327 255.936 47.782 254.531 47.782C253.533 47.782 252.74 47.544 252.151 47.068C251.584 46.6147 251.301 45.9573 251.301 45.096C251.301 44.2573 251.493 43.3733 251.879 42.444C252.264 41.5147 252.921 40.2227 253.851 38.568C255.12 36.324 257.387 32.2667 260.651 26.396C261.557 24.7867 262.215 23.5967 262.623 22.826C263.053 22.0553 263.699 20.82 264.561 19.12C265.445 17.3973 266.091 15.9127 266.499 14.666C266.929 13.4193 267.145 12.3767 267.145 11.538C267.145 10.8127 266.929 10.1667 266.499 9.6C266.091 9.03333 265.592 8.75 265.003 8.75C263.915 8.75 262.611 9.362 261.093 10.586C260.685 10.9033 260.469 11.062 260.447 11.062C260.333 11.062 260.277 11.0053 260.277 10.892C260.277 10.824 260.492 10.6087 260.923 10.246C262.94 8.65933 264.776 7.866 266.431 7.866C267.609 7.866 268.448 8.25133 268.947 9.022C269.445 9.77 269.695 10.6313 269.695 11.606C269.695 12.5127 269.309 13.8613 268.539 15.652C267.791 17.42 267.009 19.0633 266.193 20.582C265.377 22.078 264.107 24.322 262.385 27.314C260.571 30.4647 258.701 33.876 256.775 37.548Z" fill="#6A6A6A"/>
<g clip-path="url(#clip0_117_345)">
<path d="M61.3336 28.608C61.5397 28.8868 62.8287 30.6834 62.4111 32.6258C61.9269 34.8773 59.2959 36.6419 56.2303 35.8712C57.8159 37.1449 58.2503 39.392 57.5487 40.7774C56.7166 42.421 54.1852 43.0514 52.3537 41.2861C53.4648 43.0816 53.5801 45.2017 52.7244 46.4476C51.403 48.3715 48.4075 47.3054 48.0781 47.1122C42.0468 43.5732 43.007 39.0739 42.9368 38.548C42.4408 39.304 41.3412 40.7461 39.5674 41.3317C35.9126 42.538 31.4586 39.4256 31.5851 37.16C31.7178 34.7832 36.8869 33.4093 37.3941 33.2793C35.999 33.2648 29.7253 33.1513 29.52 31.5718C29.3511 30.2701 33.3792 28.5535 35.0934 27.8715C33.256 27.1353 30.9494 24.7803 30.2228 20.6785C30.034 19.6124 29.6825 17.6283 30.6816 16.3509C31.7739 14.9545 34.1551 14.8174 36.5301 16.2151C36.1355 14.5348 36.165 13.5016 36.6186 13.1156C37.4466 12.411 39.6869 13.8608 43.3396 17.4654C43.7875 12.1677 47.7806 9.05273 49.7277 9.28625C51.561 9.50633 51.3425 12.6852 51.4906 13.1173C53.6642 10.266 55.0342 9.82955 55.7638 10.2479C56.8605 10.8765 57.0474 15.7625 54.241 22.4347C55.3091 22.1589 56.9731 21.8861 58.9368 22.2476C60.5569 22.5456 62.596 22.7751 63.8908 23.7061C63.8944 23.7085 62.8811 24.778 62.9325 25.6657C62.9867 26.6061 64.1052 27.3685 64.0996 27.3732C63.2241 28.0936 62.0404 28.3311 61.3333 28.608H61.3336Z" fill="#E0DEDA"/>
<path d="M73.9937 12.8814C74.0244 12.6767 73.9412 12.4728 73.7876 12.3612C73.1132 11.8707 71.2846 12.2618 70.6125 12.3377C70.4893 12.3592 70.3669 12.3841 70.2451 12.4113C70.3271 12.3129 70.4082 12.2131 70.4869 12.1109C71.0139 11.3566 72.4081 9.59131 72.1144 8.54468C72.0923 8.46539 72.0531 8.39349 72.002 8.33402C71.3206 7.53872 69.3867 8.14418 68.5239 8.30176C66.7778 8.71436 65.2143 9.73444 63.7455 10.8506C62.5353 11.8576 61.1762 12.7752 60.436 14.3409C60.1169 15.1319 60.3874 15.8704 61.2066 15.8714C61.9417 15.9228 62.6795 15.8606 63.4129 15.8122C63.9042 15.7954 64.3949 15.7367 64.8794 15.6382C64.578 15.9514 64.2893 16.2786 64.0145 16.617C63.5285 17.2006 63.011 17.7916 62.5766 18.427C62.4775 18.5822 62.3663 18.7539 62.3274 18.9511C62.267 19.2999 62.5244 19.6251 62.8013 19.7242C64.5237 20.2719 69.0258 17.9018 70.5825 16.8243C71.2996 16.3488 73.777 14.3261 73.9934 12.881L73.9937 12.8814ZM62.54 15.4346C62.0661 15.4225 61.3009 15.3177 61.0087 15.1466C60.9712 14.476 62.4716 13.421 62.949 13.0124C64.3565 11.9779 65.8271 10.9729 67.2942 10.0264C68.2732 9.47169 70.5692 7.68924 71.6405 8.56081C71.7496 8.64951 71.8236 8.78559 71.8419 8.93679C72.0174 10.3775 69.4548 11.8341 68.6047 12.5649C67.4434 13.4475 66.3367 14.4384 65.041 15.0868C64.2486 15.4148 63.3784 15.4558 62.5397 15.4353L62.54 15.4346ZM62.9399 19.0459C62.939 19.0543 62.9369 19.061 62.9331 19.0643C62.9352 19.0583 62.9378 19.0522 62.9399 19.0459ZM69.318 16.123C67.7389 16.9056 66.2037 17.8013 64.598 18.4871C64.0758 18.689 63.5255 18.9763 62.9717 18.9602C63.4297 17.7637 64.2967 16.7527 65.1775 15.9382C65.5661 15.6479 65.9757 15.406 66.3966 15.1907C66.7616 15.0482 67.1196 14.8819 67.4679 14.6924C68.0833 14.4259 68.7046 14.1756 69.3035 13.8773C70.1711 13.5426 72.3338 12.0417 73.3615 12.4466C73.6045 12.5423 73.6549 12.8226 73.5614 13.0951C73.1167 14.3917 70.2159 15.5445 69.318 16.1227V16.123Z" fill="#616160"/>
<path d="M29.7063 35.5268C30.1374 33.4742 31.923 32.0583 33.7147 31.8527C35.492 31.6346 37.3141 32.3503 38.6679 33.6543C35.2631 32.9026 32.3514 32.3976 29.7063 35.5268Z" fill="#616160"/>
<path d="M32.1229 15.0798C33.7418 14.054 35.8647 14.5957 37.2088 15.9605C38.5514 17.3048 39.3207 19.3184 39.3927 21.337C37.5768 17.9704 35.9346 15.185 32.1226 15.0798H32.1229Z" fill="#616160"/>
<path d="M48.676 36.572C52.1014 37.6116 53.8678 42.5067 52.3308 46.0813C52.0324 42.0575 51.2038 39.4922 48.676 36.572Z" fill="#616160"/>
<path d="M30.8572 19.8358C31.0766 19.1947 31.6563 18.804 32.214 18.6235C33.8606 18.13 35.7552 19.2613 36.33 21.078C34.4339 20.9876 32.7462 19.8986 30.8572 19.8358Z" fill="#616160"/>
<path d="M39.1455 38.2665C38.6864 37.8196 38.5534 37.067 38.5876 36.4078C38.7206 34.4738 40.2817 32.8076 41.9764 32.7874C41.2776 34.7977 39.8196 36.2552 39.1455 38.2668V38.2665Z" fill="#616160"/>
<path d="M30.168 30.3907C30.3384 29.7309 30.8869 29.285 31.4292 29.0511C33.0328 28.3993 35.0053 29.3421 35.7139 31.0963C33.8181 31.1908 32.0547 30.2701 30.168 30.3907Z" fill="#616160"/>
<path d="M41.6556 19.4272C42.235 19.6207 42.6269 20.2447 42.833 20.8622C43.4075 22.6887 42.5824 24.9372 41.044 25.7469C40.9584 23.5868 41.7644 21.5766 41.6556 19.4269V19.4272Z" fill="#616160"/>
<path d="M46.71 10.3258C47.3101 10.4014 47.7914 10.9384 48.0886 11.5055C48.9332 13.1902 48.4643 15.568 47.0727 16.6704C46.6587 14.5604 47.145 12.4208 46.7097 10.3255L46.71 10.3258Z" fill="#616160"/>
<path d="M52.4614 36.0876C50.8764 34.9153 48.9446 34.7164 47.3401 33.5619C48.7196 32.4403 50.8427 32.738 51.9506 34.211C52.3195 34.7207 52.6012 35.4183 52.4614 36.0876Z" fill="#616160"/>
<path d="M45.7739 43.1596C46.4194 41.1362 46.1543 38.9465 46.7804 36.9057C48.0502 38.1845 48.2737 40.6087 47.2634 42.1701C46.9104 42.6942 46.3776 43.1639 45.7739 43.1596Z" fill="#616160"/>
<path d="M60.3284 34.0585C59.4674 34.2903 58.0227 33.2185 57.2321 32.8492C56.3141 32.3298 55.3151 31.8883 54.3809 31.3779C55.6613 30.296 57.5149 30.6787 58.7063 31.7431C59.1754 32.153 59.5638 32.6678 59.8666 33.2349C60.0285 33.5094 60.1202 33.8206 60.3281 34.0581L60.3284 34.0585Z" fill="#616160"/>
<path d="M68.788 27.9317C69.6205 27.544 70.35 26.9308 70.8439 26.1002C71.1182 25.6036 71.7121 24.4192 71.4101 23.8699C71.2308 23.5577 70.8578 23.4788 70.5912 23.6942C70.2073 24.0053 69.7936 24.1078 69.3368 23.9677C68.645 23.7771 67.9927 23.3992 67.3587 23.0222C66.9045 22.7356 66.4047 22.5383 65.8813 22.5037C65.2255 22.4312 64.577 22.6616 64.0371 23.0692C62.5777 22.2265 60.9652 21.7098 59.2549 21.5112C59.7836 21.235 60.1174 21.0566 60.1856 21.0112C60.7096 20.6625 63.2211 17.1335 62.915 16.8261C62.6092 16.5187 59.3431 16.0446 58.3782 16.5039C58.1243 16.6248 56.9633 17.5908 55.3907 18.9489C55.7991 17.7266 56.1002 16.4615 56.2727 15.173L57.1586 14.1328C57.6428 13.5643 57.6846 12.811 57.3582 12.2172L58.559 10.4482C58.7854 10.1146 58.7161 9.68822 58.4283 9.43084C58.4761 9.31829 58.5994 9.14357 58.8385 9.07167C59.1983 8.96348 60.0281 8.16851 59.9697 7.84361C59.9113 7.5187 59.2926 7.31273 58.8164 7.34432C58.3399 7.3759 57.9135 8.28645 58.0308 8.71249C58.0928 8.9376 58.0102 9.114 57.9379 9.21648C57.6139 9.18355 57.2868 9.33038 57.1146 9.61195L56.3317 10.8934C55.9321 7.65612 54.458 4.63889 52.3708 2.39579C51.896 1.93312 49.8221 -0.39532 49.3202 0.0586089C48.8115 0.392924 49.0908 0.856596 49.2181 1.34177C49.3243 1.85416 49.3107 2.38033 49.2178 2.90852C48.9362 4.42184 48.1206 5.74263 47.243 6.90114C46.3109 8.15339 45.1101 9.14458 44.2396 10.4664C43.1918 11.979 42.1624 13.5518 42.3824 15.4858C40.1931 11.6356 37.0072 9.49334 32.6202 9.71442C29.8571 9.81119 27.1828 10.8578 24.7358 12.2525C24.6037 12.3248 24.4984 12.4551 24.4509 12.6262C24.3109 13.3563 24.8644 13.4164 25.3226 13.5703C26.0923 13.8566 26.7484 14.4328 27.275 15.1347C28.1712 16.3241 28.7344 17.8042 29.1606 19.295C29.2543 19.6397 29.3407 19.9881 29.4283 20.3369C28.3499 19.6498 27.2341 19.0373 26.0828 18.5108C23.5615 17.3338 20.8468 16.6944 18.1141 16.8006C15.1585 16.8795 12.1317 18.1271 10.2153 20.7572C7.62086 19.3497 3.0454 18.3276 0.253713 17.6859C0.0207527 17.6321 -0.100151 18.032 0.104206 18.1704C1.99177 19.4505 5.83415 22.6196 8.69248 23.8689C7.39675 28.2865 9.15191 33.2377 13.0671 35.4509C15.9216 37.1353 19.2394 37.102 22.3578 36.7465C23.1752 36.6817 24.0525 36.5698 24.9732 36.4337C24.6621 38.3136 24.6514 40.2503 24.8007 42.1463C24.8201 42.3882 24.9596 42.6076 25.1737 42.6943C25.5632 42.8368 25.851 42.5539 25.9487 42.1362C26.0887 41.7408 26.2695 41.3567 26.4803 41.0056C28.4519 37.7108 31.0487 40.2392 33.5765 41.0426C37.3192 42.5421 40.2406 41.6007 42.3228 38.8082C41.9309 41.2993 43.2399 43.7026 44.9385 45.2832C46.0811 46.4454 47.5081 47.0905 48.8251 47.9342C49.3904 54.7911 41.8292 57.55 36.781 57.6128C33.1981 57.7395 29.6073 56.8286 26.3966 55.0206C26.2391 54.9292 26.0743 54.8315 25.9041 54.7276C26.749 52.8118 26.9805 50.5411 26.3096 48.5594C24.7667 43.9936 18.9047 44.4469 20.0155 49.89C20.6029 52.334 22.6937 54.053 24.5335 55.327C24.4571 55.4682 24.3772 55.6049 24.2943 55.737C23.0924 57.7123 20.8082 58.7831 18.7437 58.1612C15.735 57.1623 14.9113 54.2018 16.6034 51.2766C15.6008 52.7627 15.0729 54.9198 16.0738 56.5806C17.0304 58.2082 18.8038 59.1147 20.5059 58.9887C22.4929 58.9316 24.2053 57.6424 25.3223 55.8344C27.3582 57.0655 29.5595 57.9502 31.8219 58.4464C37.5347 59.6375 45.7515 58.7035 49.0943 52.5705C49.7047 51.402 49.9559 50.0828 49.9636 48.75C51.1358 49.6729 52.1971 50.8318 52.5362 52.418C52.5362 52.418 52.5365 52.419 52.5365 52.4193C52.699 52.9156 52.5498 53.7942 52.9555 54.1047C53.2097 54.2892 53.5471 54.2035 53.7087 53.9139C55.8885 49.9847 57.9329 45.5859 57.9515 40.8215C57.9303 39.1297 57.5192 37.2331 56.4673 35.9963C57.8394 36.3904 59.2661 36.47 60.6771 36.1004C61.7667 35.843 62.7154 35.1536 63.7375 34.6879C65.5814 33.8435 67.7568 33.273 69.6479 34.2168C69.8578 34.3156 70.0398 34.4719 70.243 34.5834C70.6337 34.7796 71.0952 34.3338 70.9749 33.8573C70.4936 31.5588 69.7478 29.5855 68.7883 27.9321L68.788 27.9317ZM25.0492 54.179C23.3442 53.0265 21.4628 51.37 21.0754 49.4176C20.4764 46.7518 22.8255 45.9162 24.3772 47.5562C25.8835 49.2765 25.8516 51.9859 25.0492 54.179ZM65.042 23.5C65.8707 23.2527 66.6256 23.6925 67.297 24.2052C68.1221 24.7498 69.0018 25.3987 70.0029 25.3422C69.8932 25.6248 69.7703 25.8979 69.6255 26.1637C68.6435 28.0997 66.0621 28.3591 64.3231 27.2372C63.5582 26.7759 63.0395 26.5064 63.2733 25.4319C63.4591 24.4683 64.2143 23.716 65.042 23.5ZM58.6536 17.534C59.3009 17.3845 59.9314 17.8556 60.0614 18.5867C60.1915 19.3178 59.7724 20.0318 59.1249 20.1813C58.4776 20.3308 57.8471 19.8598 57.7171 19.1287C57.587 18.3975 58.0061 17.6835 58.6536 17.534ZM54.4869 19.7324C51.7928 22.0784 48.299 25.1927 45.9517 27.2943L55.2837 16.3345C55.1117 17.4648 54.8425 18.6005 54.4872 19.7324H54.4869ZM10.7346 22.1049C11.0849 22.4117 11.2651 22.793 11.1604 23.0921C11.0407 23.4351 10.5827 23.5638 10.056 23.4398C10.2415 22.9842 10.4671 22.5377 10.7346 22.1049ZM8.72049 21.985C8.82813 21.6779 9.20647 21.5424 9.66266 21.6066C9.4238 22.0186 9.21649 22.4412 9.04074 22.872C8.76119 22.5854 8.62731 22.2521 8.72049 21.985ZM25.2421 35.076C24.2017 35.2342 23.1991 35.373 22.2528 35.4661C19.4783 35.7701 16.5559 35.8716 13.9704 34.5192C10.2946 32.6887 8.58042 28.2455 9.7697 24.2549C10.9339 24.563 11.8109 24.3638 12.1191 23.2923C12.316 22.6069 11.9483 21.9772 11.2188 21.4027C13.8011 18.0498 18.1778 17.6086 21.8335 18.4328C24.6164 18.9744 27.2633 20.0594 29.7447 21.5324C29.8739 21.9786 30.0199 22.418 30.1997 22.8431C30.9886 24.8261 32.3981 26.7752 34.281 27.3733C30.0361 27.4943 26.4497 30.2387 25.2421 35.076ZM63.3913 33.7871C62.4243 34.2955 61.5432 35.0178 60.4999 35.3249C57.4652 36.2798 54.2828 35.0239 51.6796 33.1501C51.6327 33.1161 51.5855 33.1934 51.6294 33.232C52.9429 34.3801 54.453 35.3297 56.0471 35.8652C59.0957 40.0981 55.5788 47.7991 53.5279 51.8283C53.522 51.8401 53.5067 51.8381 53.5028 51.825C52.5798 48.719 49.7138 47.2491 47.2595 46.0422C44.6315 44.7405 42.413 41.6722 42.7165 38.2417C43.1279 37.6104 43.5027 36.9011 43.8406 36.1176C43.8713 36.047 43.7828 35.9899 43.7453 36.0561C43.3868 36.6881 43.0002 37.2959 42.5741 37.8607C39.9443 41.4333 36.7843 41.4901 33.2264 39.755C30.5675 38.5078 28.1329 36.757 25.8245 39.8683C25.672 32.1145 29.4693 27.6639 36.17 27.5399C36.198 27.5396 36.2004 27.4929 36.1727 27.4885C35.6265 27.4072 35.0869 27.3683 34.5564 27.3693C32.3692 26.4782 31.0555 23.879 30.4651 21.4205C29.8388 18.2292 29.0916 14.5134 26.3942 12.7642C35.1146 8.399 41.4939 12.1151 44.7314 21.8159C44.7515 21.8761 44.8308 21.8485 44.8181 21.7857C44.7418 21.4114 44.6512 21.0401 44.5533 20.6715C44.1479 19.1277 43.5799 17.6577 42.8636 16.3241C42.6846 13.9601 43.9615 11.6434 45.4731 10.0817C47.6325 7.98506 50.2134 5.58169 50.3658 2.08869C53.351 4.78605 54.8994 7.95314 55.3559 11.3104C54.8543 11.4055 54.3966 11.6958 54.1195 12.1464L43.3649 29.613C43.3626 29.6137 43.3608 29.6144 43.3608 29.6144C43.3617 29.6144 43.3626 29.6151 43.3635 29.6151L43.3608 29.6194H43.3788C45.5332 30.2669 59.7512 28.5866 62.8003 28.216C62.9236 28.2009 62.9466 28.0087 62.8316 27.9559C62.3459 27.7331 61.6721 27.2759 61.4108 26.3979C61.154 25.5344 61.5279 24.9457 61.8682 24.6128C61.9602 24.5227 61.8882 24.352 61.7688 24.3776C58.8559 25.0025 47.376 28.4142 44.1865 29.3668L44.4357 29.0741C47.1306 27.7073 54.2203 24.1088 57.9031 22.2107C59.8261 22.409 61.6376 22.9499 63.2559 23.89C62.4848 25.0136 62.3639 26.5605 63.687 27.542C64.7991 28.3574 66.2876 28.6027 67.6677 28.3057C68.448 29.5972 69.0926 31.1116 69.5739 32.8675C67.5041 32.1485 65.2942 32.7781 63.3907 33.7868L63.3913 33.7871Z" fill="#616160"/>
</g>
<defs>
<clipPath id="clip0_117_345">
<rect width="74" height="59" fill="white"/>
</clipPath>
</defs>
</svg>
