<svg width="25" height="35" viewBox="0 0 25 35" fill="none" xmlns="http://www.w3.org/2000/svg">
<path d="M12.5001 0C7.04529 0 1.64631 0.76087 1.64631 0.76087C1.20686 0.820312 0.885995 1.14428 0.89297 1.52174V5.32609C0.889482 5.549 1.00109 5.76299 1.20338 5.9116C1.40218 6.05724 1.66375 6.12262 1.92533 6.08696C1.92533 6.08696 2.26015 6.04832 2.70658 5.99185L3.51573 17.5H0.89297C0.865068 17.5 0.837166 17.5 0.809265 17.5C0.781363 17.5 0.753461 17.5 0.72556 17.5C0.30006 17.5684 -0.00685846 17.8894 0.000116511 18.2609V21.3043C0.000116511 21.7234 0.401203 22.0652 0.89297 22.0652H1.78582V34.2391C1.78582 34.6582 2.18691 35 2.67868 35H5.35723C5.849 35 6.25009 34.6582 6.25009 34.2391V25.8696H18.75V34.2391C18.75 34.6582 19.1511 35 19.6429 35H22.3214C22.8132 35 23.2143 34.6582 23.2143 34.2391V22.0652H24.1071C24.5989 22.0652 25 21.7234 25 21.3043V18.2609C25 17.8418 24.5989 17.5 24.1071 17.5H21.4844L22.2935 5.99185C22.74 6.04832 23.0748 6.08696 23.0748 6.08696C23.3364 6.12262 23.5979 6.05724 23.7967 5.9116C23.999 5.76299 24.1106 5.549 24.1071 5.32609V1.52174C24.1141 1.14428 23.7933 0.820312 23.3538 0.76087C23.3538 0.76087 17.9548 0 12.5001 0ZM12.5001 1.52174C17.1596 1.52174 21.3135 2.05375 22.3214 2.1875V4.44633C21.0449 4.27989 17.2573 3.81624 12.6954 3.80435C12.6047 3.78354 12.5105 3.77463 12.4164 3.78057C12.378 3.78652 12.3396 3.79543 12.3047 3.80435C7.74283 3.81624 3.95518 4.27989 2.67868 4.44633V2.1875C3.68662 2.05375 7.84048 1.52174 12.5001 1.52174ZM11.6072 5.32609V17.5H9.34717L8.95655 5.4212C9.81801 5.37661 10.7004 5.34095 11.6072 5.32609ZM13.3929 5.32609C14.2997 5.34095 15.1821 5.37661 16.0436 5.4212L15.6529 17.5H13.3929V5.32609ZM7.17084 5.56386L7.56147 17.5H5.30143L4.49228 5.77785C5.26655 5.69761 6.15941 5.64113 7.17084 5.56386ZM17.8293 5.56386C18.8407 5.64113 19.7336 5.69761 20.5078 5.77785L19.6987 17.5H17.4387L17.8293 5.56386ZM1.78582 19.0217H23.2143V20.5435H1.78582V19.0217ZM3.57153 22.0652H4.46438V24.752C4.3458 24.9631 4.3458 25.2068 4.46438 25.4178V33.4783H3.57153V22.0652ZM6.25009 22.0652H18.75V24.3478H6.25009V22.0652ZM20.5357 22.0652H21.4286V33.4783H20.5357V25.2514C20.5602 25.1503 20.5602 25.0433 20.5357 24.9423V22.0652Z" />
</svg>
