<svg width="74" height="59" viewBox="0 0 74 59" fill="none" xmlns="http://www.w3.org/2000/svg">
<g clip-path="url(#clip0_316_109)">
<path d="M61.3337 28.608C61.5398 28.8868 62.8288 30.6834 62.4112 32.6258C61.927 34.8773 59.296 36.6419 56.2304 35.8712C57.816 37.1449 58.2504 39.3921 57.5488 40.7774C56.7167 42.421 54.1854 43.0514 52.3538 41.2861C53.465 43.0816 53.5803 45.2017 52.7245 46.4476C51.4031 48.3715 48.4077 47.3054 48.0783 47.1122C42.047 43.5732 43.0071 39.0739 42.9369 38.548C42.4409 39.304 41.3413 40.7461 39.5675 41.3317C35.9127 42.538 31.4588 39.4256 31.5853 37.16C31.718 34.7832 36.887 33.4093 37.3942 33.2793C35.9991 33.2648 29.7254 33.1513 29.5202 31.5718C29.3512 30.2701 33.3793 28.5535 35.0935 27.8715C33.2561 27.1353 30.9495 24.7803 30.2229 20.6785C30.0342 19.6124 29.6827 17.6283 30.6817 16.3509C31.774 14.9545 34.1552 14.8174 36.5302 16.2151C36.1357 14.5348 36.1651 13.5016 36.6187 13.1156C37.4467 12.411 39.687 13.8608 43.3397 17.4654C43.7877 12.1677 47.7807 9.05273 49.7279 9.28625C51.5612 9.50633 51.3427 12.6852 51.4907 13.1173C53.6643 10.266 55.0343 9.82955 55.7639 10.2479C56.8606 10.8765 57.0475 15.7625 54.2411 22.4347C55.3092 22.1589 56.9732 21.8861 58.9369 22.2476C60.557 22.5456 62.5961 22.7751 63.891 23.7061C63.8945 23.7085 62.8813 24.778 62.9326 25.6657C62.9868 26.6061 64.1053 27.3685 64.0997 27.3732C63.2242 28.0936 62.0405 28.3311 61.3334 28.608H61.3337Z" fill="#E0DEDA"/>
<path d="M73.9938 12.8814C74.0245 12.6767 73.9413 12.4728 73.7877 12.3612C73.1133 11.8707 71.2847 12.2618 70.6127 12.3377C70.4894 12.3592 70.367 12.3841 70.2452 12.4113C70.3272 12.3129 70.4083 12.2131 70.487 12.1109C71.014 11.3566 72.4082 9.59131 72.1145 8.54468C72.0924 8.46539 72.0532 8.39349 72.0022 8.33402C71.3207 7.53872 69.3868 8.14418 68.524 8.30176C66.778 8.71436 65.2145 9.73444 63.7456 10.8506C62.5354 11.8576 61.1763 12.7752 60.4361 14.3409C60.1171 15.1319 60.3875 15.8704 61.2067 15.8714C61.9418 15.9228 62.6796 15.8606 63.413 15.8122C63.9043 15.7954 64.395 15.7367 64.8795 15.6382C64.5781 15.9514 64.2894 16.2786 64.0146 16.617C63.5286 17.2006 63.0111 17.7916 62.5767 18.427C62.4776 18.5822 62.3665 18.7539 62.3275 18.9511C62.2671 19.2999 62.5245 19.6251 62.8014 19.7242C64.5238 20.2719 69.0259 17.9018 70.5826 16.8243C71.2998 16.3488 73.7771 14.3261 73.9935 12.881L73.9938 12.8814ZM62.5401 15.4346C62.0663 15.4225 61.301 15.3177 61.0088 15.1466C60.9713 14.476 62.4717 13.421 62.9492 13.0124C64.3566 11.9779 65.8272 10.9729 67.2943 10.0264C68.2733 9.47169 70.5693 7.68924 71.6406 8.56081C71.7497 8.64951 71.8238 8.78559 71.842 8.93679C72.0175 10.3775 69.4549 11.8341 68.6048 12.5649C67.4435 13.4475 66.3368 14.4384 65.0411 15.0868C64.2487 15.4148 63.3785 15.4558 62.5399 15.4353L62.5401 15.4346ZM62.94 19.0459C62.9391 19.0543 62.9371 19.061 62.9332 19.0643C62.9353 19.0583 62.9379 19.0522 62.94 19.0459ZM69.3181 16.123C67.739 16.9056 66.2038 17.8013 64.5982 18.4871C64.0759 18.689 63.5257 18.9763 62.9719 18.9602C63.4298 17.7637 64.2968 16.7527 65.1776 15.9382C65.5663 15.6479 65.9759 15.406 66.3967 15.1907C66.7617 15.0482 67.1197 14.8819 67.468 14.6924C68.0834 14.4259 68.7047 14.1756 69.3037 13.8773C70.1712 13.5426 72.3339 12.0417 73.3616 12.4466C73.6046 12.5423 73.655 12.8226 73.5615 13.0951C73.1168 14.3917 70.216 15.5445 69.3181 16.1227V16.123Z" fill="#616160"/>
<path d="M29.7063 35.5268C30.1374 33.4742 31.923 32.0583 33.7147 31.8527C35.492 31.6346 37.3141 32.3503 38.6679 33.6543C35.2631 32.9026 32.3514 32.3976 29.7063 35.5268Z" fill="#616160"/>
<path d="M32.1229 15.0798C33.7418 14.054 35.8647 14.5957 37.2088 15.9605C38.5514 17.3048 39.3207 19.3184 39.3927 21.337C37.5768 17.9704 35.9346 15.185 32.1226 15.0798H32.1229Z" fill="#616160"/>
<path d="M48.676 36.572C52.1014 37.6116 53.8678 42.5067 52.3308 46.0813C52.0324 42.0575 51.2038 39.4922 48.676 36.572Z" fill="#616160"/>
<path d="M30.8573 19.8358C31.0767 19.1947 31.6564 18.804 32.2141 18.6235C33.8607 18.13 35.7554 19.2613 36.3301 21.078C34.434 20.9876 32.7463 19.8986 30.8573 19.8358Z" fill="#616160"/>
<path d="M39.1457 38.2665C38.6865 37.8196 38.5535 37.067 38.5877 36.4078C38.7207 34.4738 40.2819 32.8076 41.9766 32.7874C41.2777 34.7977 39.8198 36.2552 39.1457 38.2668V38.2665Z" fill="#616160"/>
<path d="M30.1681 30.3907C30.3385 29.7309 30.887 29.285 31.4293 29.0511C33.0329 28.3993 35.0054 29.3421 35.714 31.0963C33.8182 31.1908 32.0548 30.2701 30.1681 30.3907Z" fill="#616160"/>
<path d="M41.6557 19.4272C42.2351 19.6207 42.627 20.2447 42.8332 20.8622C43.4076 22.6887 42.5825 24.9372 41.0441 25.7469C40.9586 23.5868 41.7645 21.5766 41.6557 19.4269V19.4272Z" fill="#616160"/>
<path d="M46.71 10.3258C47.3101 10.4014 47.7914 10.9384 48.0886 11.5055C48.9332 13.1902 48.4643 15.568 47.0727 16.6704C46.6587 14.5604 47.145 12.4208 46.7097 10.3255L46.71 10.3258Z" fill="#616160"/>
<path d="M52.4615 36.0876C50.8765 34.9153 48.9447 34.7164 47.3402 33.5619C48.7197 32.4403 50.8429 32.738 51.9508 34.211C52.3197 34.7207 52.6013 35.4183 52.4615 36.0876Z" fill="#616160"/>
<path d="M45.774 43.1596C46.4196 41.1362 46.1545 38.9465 46.7805 36.9057C48.0503 38.1845 48.2738 40.6087 47.2635 42.1701C46.9105 42.6942 46.3777 43.1639 45.774 43.1596Z" fill="#616160"/>
<path d="M60.3285 34.0585C59.4675 34.2903 58.0228 33.2185 57.2322 32.8492C56.3143 32.3298 55.3152 31.8883 54.381 31.3779C55.6614 30.296 57.515 30.6787 58.7064 31.7431C59.1755 32.153 59.5639 32.6678 59.8668 33.2349C60.0286 33.5094 60.1204 33.8206 60.3283 34.0581L60.3285 34.0585Z" fill="#616160"/>
<path d="M68.7881 27.9317C69.6206 27.544 70.3501 26.9308 70.8441 26.1002C71.1183 25.6036 71.7122 24.4192 71.4102 23.8699C71.231 23.5577 70.8579 23.4788 70.5913 23.6942C70.2074 24.0053 69.7937 24.1078 69.3369 23.9677C68.6451 23.7771 67.9928 23.3992 67.3588 23.0222C66.9047 22.7356 66.4048 22.5383 65.8814 22.5037C65.2256 22.4312 64.5771 22.6616 64.0372 23.0692C62.5778 22.2265 60.9654 21.7098 59.255 21.5112C59.7838 21.235 60.1176 21.0566 60.1857 21.0112C60.7097 20.6625 63.2212 17.1335 62.9152 16.8261C62.6094 16.5187 59.3432 16.0446 58.3783 16.5039C58.1244 16.6248 56.9635 17.5908 55.3908 18.9489C55.7992 17.7266 56.1003 16.4615 56.2728 15.173L57.1587 14.1328C57.6429 13.5643 57.6848 12.811 57.3583 12.2172L58.5591 10.4482C58.7856 10.1146 58.7163 9.68822 58.4285 9.43084C58.4762 9.31829 58.5995 9.14357 58.8386 9.07167C59.1984 8.96348 60.0282 8.16851 59.9698 7.84361C59.9114 7.5187 59.2928 7.31273 58.8165 7.34432C58.34 7.3759 57.9136 8.28645 58.031 8.71249C58.0929 8.9376 58.0103 9.114 57.9381 9.21648C57.614 9.18355 57.287 9.33038 57.1147 9.61195L56.3318 10.8934C55.9322 7.65612 54.4581 4.63889 52.3709 2.39579C51.8961 1.93312 49.8222 -0.39532 49.3203 0.0586089C48.8116 0.392924 49.0909 0.856596 49.2183 1.34177C49.3244 1.85416 49.3109 2.38033 49.218 2.90852C48.9364 4.42184 48.1207 5.74263 47.2431 6.90114C46.311 8.15339 45.1102 9.14458 44.2397 10.4664C43.192 11.979 42.1625 13.5518 42.3825 15.4858C40.1933 11.6356 37.0073 9.49334 32.6203 9.71442C29.8572 9.81119 27.1829 10.8578 24.7359 12.2525C24.6038 12.3248 24.4985 12.4551 24.451 12.6262C24.311 13.3563 24.8645 13.4164 25.3227 13.5703C26.0924 13.8566 26.7485 14.4328 27.2752 15.1347C28.1713 16.3241 28.7346 17.8042 29.1607 19.295C29.2544 19.6397 29.3409 19.9881 29.4284 20.3369C28.35 19.6498 27.2342 19.0373 26.0829 18.5108C23.5617 17.3338 20.8469 16.6944 18.1142 16.8006C15.1586 16.8795 12.1319 18.1271 10.2154 20.7572C7.62098 19.3497 3.04553 18.3276 0.253835 17.6859C0.0208748 17.6321 -0.100029 18.032 0.104328 18.1704C1.9919 19.4505 5.83427 22.6196 8.6926 23.8689C7.39687 28.2865 9.15204 33.2377 13.0672 35.4509C15.9217 37.1353 19.2395 37.102 22.3579 36.7465C23.1754 36.6817 24.0527 36.5698 24.9733 36.4337C24.6622 38.3136 24.6516 40.2503 24.8008 42.1463C24.8202 42.3882 24.9597 42.6076 25.1738 42.6943C25.5634 42.8368 25.8512 42.5539 25.9488 42.1362C26.0888 41.7408 26.2696 41.3567 26.4805 41.0056C28.4521 37.7108 31.0488 40.2392 33.5766 41.0426C37.3193 42.5421 40.2407 41.6007 42.3229 38.8082C41.931 41.2993 43.24 43.7026 44.9386 45.2832C46.0813 46.4454 47.5082 47.0905 48.8252 47.9342C49.3905 54.7911 41.8293 57.55 36.7811 57.6128C33.1983 57.7395 29.6074 56.8286 26.3967 55.0206C26.2392 54.9292 26.0744 54.8315 25.9042 54.7276C26.7491 52.8118 26.9806 50.5411 26.3097 48.5594C24.7669 43.9936 18.9048 44.4469 20.0157 49.89C20.6031 52.334 22.6938 54.053 24.5336 55.327C24.4572 55.4682 24.3773 55.6049 24.2945 55.737C23.0925 57.7123 20.8083 58.7831 18.7438 58.1612C15.7351 57.1623 14.9115 54.2018 16.6035 51.2766C15.6009 52.7627 15.0731 54.9198 16.0739 56.5806C17.0305 58.2082 18.804 59.1147 20.5061 58.9887C22.493 58.9316 24.2054 57.6424 25.3224 55.8344C27.3583 57.0655 29.5597 57.9502 31.822 58.4464C37.5349 59.6375 45.7516 58.7035 49.0944 52.5705C49.7048 51.402 49.9561 50.0828 49.9637 48.75C51.1359 49.6729 52.1972 50.8318 52.5363 52.418C52.5363 52.418 52.5366 52.419 52.5366 52.4194C52.6991 52.9156 52.5499 53.7942 52.9557 54.1047C53.2099 54.2892 53.5472 54.2035 53.7088 53.9139C55.8886 49.9847 57.933 45.5859 57.9516 40.8215C57.9304 39.1298 57.5193 37.2331 56.4675 35.9963C57.8396 36.3904 59.2662 36.47 60.6773 36.1004C61.7669 35.843 62.7155 35.1536 63.7376 34.6879C65.5815 33.8435 67.7569 33.273 69.648 34.2168C69.858 34.3156 70.0399 34.4719 70.2431 34.5834C70.6338 34.7796 71.0953 34.3338 70.975 33.8573C70.4937 31.5588 69.748 29.5855 68.7884 27.9321L68.7881 27.9317ZM25.0494 54.179C23.3443 53.0265 21.463 51.37 21.0755 49.4176C20.4766 46.7518 22.8256 45.9162 24.3773 47.5562C25.8836 49.2765 25.8518 51.9859 25.0494 54.179ZM65.0422 23.4999C65.8708 23.2527 66.6257 23.6925 67.2972 24.2052C68.1223 24.7498 69.0019 25.3987 70.003 25.3422C69.8933 25.6248 69.7704 25.8979 69.6256 26.1637C68.6436 28.0997 66.0622 28.3591 64.3232 27.2372C63.5583 26.7759 63.0396 26.5064 63.2734 25.4319C63.4592 24.4683 64.2144 23.716 65.0422 23.4999ZM58.6538 17.534C59.301 17.3845 59.9315 17.8556 60.0615 18.5867C60.1916 19.3178 59.7725 20.0318 59.125 20.1813C58.4777 20.3308 57.8472 19.8598 57.7172 19.1287C57.5871 18.3975 58.0062 17.6835 58.6538 17.534ZM54.487 19.7324C51.7929 22.0784 48.2991 25.1927 45.9518 27.2943L55.2838 16.3345C55.1119 17.4648 54.8426 18.6005 54.4873 19.7324H54.487ZM10.7347 22.1049C11.085 22.4117 11.2652 22.793 11.1605 23.0921C11.0408 23.4351 10.5828 23.5638 10.0562 23.4398C10.2416 22.9842 10.4672 22.5377 10.7347 22.1049ZM8.72062 21.985C8.82825 21.6779 9.20659 21.5424 9.66278 21.6066C9.42392 22.0186 9.21662 22.4412 9.04086 22.872C8.76131 22.5854 8.62743 22.2521 8.72062 21.985ZM25.2422 35.076C24.2019 35.2342 23.1993 35.373 22.253 35.4661C19.4784 35.7701 16.556 35.8716 13.9705 34.5192C10.2947 32.6887 8.58055 28.2455 9.76982 24.2549C10.934 24.563 11.811 24.3638 12.1192 23.2923C12.3162 22.6069 11.9484 21.9772 11.2189 21.4027C13.8012 18.0498 18.1779 17.6086 21.8336 18.4328C24.6165 18.9744 27.2634 20.0594 29.7448 21.5324C29.874 21.9786 30.02 22.418 30.1999 22.8431C30.9887 24.8261 32.3982 26.7752 34.2811 27.3733C30.0362 27.4943 26.4498 30.2387 25.2422 35.076ZM63.3914 33.7871C62.4245 34.2955 61.5433 35.0178 60.5 35.3249C57.4654 36.2798 54.2829 35.0239 51.6797 33.1501C51.6328 33.1161 51.5856 33.1934 51.6296 33.232C52.943 34.3801 54.4531 35.3296 56.0472 35.8652C59.0958 40.0981 55.579 47.7991 53.528 51.8283C53.5221 51.8401 53.5068 51.8381 53.503 51.825C52.58 48.719 49.714 47.2491 47.2596 46.0422C44.6316 44.7405 42.4132 41.6722 42.7166 38.2417C43.128 37.6104 43.5028 36.9011 43.8407 36.1176C43.8714 36.047 43.7829 35.9899 43.7455 36.0561C43.3869 36.6881 43.0003 37.2959 42.5742 37.8607C39.9444 41.4333 36.7844 41.4901 33.2266 39.755C30.5676 38.5078 28.133 36.757 25.8246 39.8683C25.6722 32.1145 29.4694 27.6639 36.1701 27.5399C36.1981 27.5396 36.2005 27.4929 36.1728 27.4885C35.6267 27.4072 35.087 27.3683 34.5565 27.3693C32.3693 26.4782 31.0556 23.879 30.4653 21.4205C29.8389 18.2292 29.0917 14.5134 26.3943 12.7642C35.1147 8.399 41.494 12.1151 44.7316 21.8159C44.7516 21.8761 44.8309 21.8485 44.8183 21.7857C44.7419 21.4114 44.6514 21.0401 44.5535 20.6715C44.148 19.1277 43.58 17.6577 42.8638 16.3241C42.6848 13.9601 43.9616 11.6434 45.4732 10.0817C47.6327 7.98506 50.2135 5.58169 50.366 2.08869C53.3511 4.78605 54.8995 7.95314 55.356 11.3104C54.8544 11.4055 54.3968 11.6958 54.1196 12.1464L43.3651 29.613C43.3627 29.6137 43.3609 29.6144 43.3609 29.6144C43.3618 29.6144 43.3627 29.6151 43.3636 29.6151L43.3609 29.6194H43.3789C45.5334 30.2669 59.7513 28.5866 62.8004 28.216C62.9237 28.2009 62.9467 28.0087 62.8317 27.9559C62.346 27.7331 61.6722 27.2759 61.4109 26.3979C61.1541 25.5344 61.528 24.9457 61.8683 24.6128C61.9603 24.5227 61.8884 24.352 61.7689 24.3776C58.856 25.0025 47.3761 28.4142 44.1866 29.3668L44.4358 29.0741C47.1308 27.7073 54.2204 24.1088 57.9033 22.2107C59.8262 22.409 61.6377 22.9499 63.256 23.89C62.4849 25.0136 62.364 26.5605 63.6872 27.542C64.7992 28.3574 66.2878 28.6027 67.6678 28.3057C68.4481 29.5972 69.0927 31.1116 69.574 32.8675C67.5042 32.1485 65.2943 32.7781 63.3908 33.7868L63.3914 33.7871Z" fill="#616160"/>
</g>
<defs>
<clipPath id="clip0_316_109">
<rect width="74" height="59" fill="white"/>
</clipPath>
</defs>
</svg>
