<svg width="34" height="35" viewBox="0 0 34 35" fill="none" xmlns="http://www.w3.org/2000/svg">
<path d="M33 13.8333V8.33333C33 6.30829 31.2092 4.66667 29 4.66667H5C2.79086 4.66667 1 6.30829 1 8.33333V13.8333M33 13.8333V30.3333C33 32.3584 31.2092 34 29 34H5C2.79086 34 1 32.3584 1 30.3333V13.8333M33 13.8333H1M9 1V8.33333M25 1V8.33333" stroke="black" stroke-linecap="round"/>
<path d="M8.57893 17.5H5.21051C4.74543 17.5 4.36841 17.7931 4.36841 18.1548V20.7738C4.36841 21.1354 4.74543 21.4286 5.21051 21.4286H8.57893C9.04402 21.4286 9.42104 21.1354 9.42104 20.7738V18.1548C9.42104 17.7931 9.04402 17.5 8.57893 17.5Z" fill="black"/>
<path d="M18.6842 17.5H15.3157C14.8507 17.5 14.4736 17.7931 14.4736 18.1548V20.7738C14.4736 21.1354 14.8507 21.4286 15.3157 21.4286H18.6842C19.1492 21.4286 19.5263 21.1354 19.5263 20.7738V18.1548C19.5263 17.7931 19.1492 17.5 18.6842 17.5Z" fill="black"/>
<path d="M28.7894 17.5H25.421C24.9559 17.5 24.5789 17.7931 24.5789 18.1548V20.7738C24.5789 21.1354 24.9559 21.4286 25.421 21.4286H28.7894C29.2545 21.4286 29.6315 21.1354 29.6315 20.7738V18.1548C29.6315 17.7931 29.2545 17.5 28.7894 17.5Z" fill="black"/>
</svg>
