<svg width="38" height="38" viewBox="0 0 38 38" fill="none" xmlns="http://www.w3.org/2000/svg">
<path d="M19.0001 34.8333C27.7446 34.8333 34.8334 27.7445 34.8334 19C34.8334 10.2555 27.7446 3.16666 19.0001 3.16666C10.2556 3.16666 3.16675 10.2555 3.16675 19C3.16675 27.7445 10.2556 34.8333 19.0001 34.8333Z" stroke-linecap="square"/>
<path d="M19.0001 34.8333C23.2223 30.9949 25.3334 25.7172 25.3334 19C25.3334 12.2828 23.2223 7.00504 19.0001 3.16666C14.7779 7.00504 12.6667 12.2828 12.6667 19C12.6667 25.7172 14.7779 30.9949 19.0001 34.8333Z"  stroke-linecap="round"/>
<path d="M3.95825 14.25H34.0416M3.95825 23.75H34.0416"  stroke-linecap="round"/>
</svg>
