<svg width="26" height="38" viewBox="0 0 26 38" fill="none" xmlns="http://www.w3.org/2000/svg">
<path d="M23.4527 37.7487H2.50422C1.38971 37.7487 0.48291 36.8419 0.48291 35.7273V8.0146C0.48291 6.90008 1.38971 5.99329 2.50422 5.99329H6.28365C6.51389 5.99329 6.70076 6.18015 6.70076 6.4104C6.70076 6.64064 6.51389 6.8275 6.28365 6.8275H2.50422C1.84978 6.8275 1.31713 7.35974 1.31713 8.0146V35.7273C1.31713 36.3818 1.84936 36.9144 2.50422 36.9144H23.4527C24.1072 36.9144 24.6402 36.3822 24.6402 35.7273V8.0146C24.6402 7.36015 24.1076 6.8275 23.4527 6.8275H19.6733C19.4426 6.8275 19.2562 6.64064 19.2562 6.4104C19.2562 6.18015 19.4426 5.99329 19.6733 5.99329H23.4527C24.5676 5.99329 25.4744 6.90008 25.4744 8.0146V35.7273C25.4744 36.8419 24.5676 37.7487 23.4527 37.7487Z" fill="black"/>
<path d="M19.6736 8.29363H6.28356C6.05332 8.29363 5.86646 8.10677 5.86646 7.87652V6.4596C5.86646 4.24308 7.64501 2.43408 9.84985 2.38444C10.3316 1.08849 11.5754 0.208801 12.9786 0.208801C14.3817 0.208801 15.6256 1.08849 16.1073 2.38444C18.3122 2.43408 20.0907 4.24308 20.0907 6.4596V7.87652C20.0907 8.10718 19.9043 8.29363 19.6736 8.29363ZM6.70067 7.45941H19.2565V6.4596C19.2565 4.67187 17.8025 3.21783 16.0147 3.21783H15.8024C15.6131 3.21783 15.4475 3.09061 15.3991 2.9075C15.1079 1.80967 14.1131 1.04302 12.9786 1.04302C11.8445 1.04302 10.8492 1.80967 10.5581 2.9075C10.5097 3.09019 10.3441 3.21783 10.1548 3.21783H9.94245C8.15472 3.21783 6.70067 4.67229 6.70067 6.4596V7.45941Z" fill="black"/>
<path d="M13.9797 4.99929H11.9772C11.7469 4.99929 11.5601 4.81242 11.5601 4.58218C11.5601 4.35193 11.7469 4.16507 11.9772 4.16507H13.9797C14.2104 4.16507 14.3968 4.35193 14.3968 4.58218C14.3968 4.81242 14.2104 4.99929 13.9797 4.99929Z" fill="black"/>
<path d="M7.14712 24.7694H5.08326C4.55312 24.7694 4.12183 24.3382 4.12183 23.808V21.7442C4.12183 21.214 4.55312 20.7827 5.08326 20.7827H7.14712C7.67727 20.7827 8.10856 21.214 8.10856 21.7442V23.808C8.10814 24.3382 7.67727 24.7694 7.14712 24.7694ZM5.08326 21.6169C5.01319 21.6169 4.95604 21.6741 4.95604 21.7442V23.808C4.95604 23.8781 5.01319 23.9352 5.08326 23.9352H7.14712C7.21719 23.9352 7.27434 23.8781 7.27434 23.808V21.7442C7.27434 21.6741 7.21719 21.6169 7.14712 21.6169H5.08326Z" fill="black"/>
<path d="M21.0168 21.6169H10.8397C10.6095 21.6169 10.4226 21.4305 10.4226 21.1998C10.4226 20.9692 10.6095 20.7827 10.8397 20.7827H21.0168C21.2474 20.7827 21.4339 20.9692 21.4339 21.1998C21.4339 21.4305 21.2474 21.6169 21.0168 21.6169Z" fill="black"/>
<path d="M16.1708 24.7695H10.8397C10.6095 24.7695 10.4226 24.583 10.4226 24.3524C10.4226 24.1217 10.6095 23.9352 10.8397 23.9352H16.1708C16.4015 23.9352 16.5879 24.1217 16.5879 24.3524C16.5879 24.583 16.4015 24.7695 16.1708 24.7695Z" fill="black"/>
<path d="M5.79976 17.0817C5.6667 17.0817 5.54115 17.0183 5.46273 16.9103L4.20181 15.1801C4.06625 14.9941 4.10713 14.733 4.29316 14.5974C4.47961 14.4614 4.7403 14.5027 4.87586 14.6887L5.76597 15.91L7.33347 13.2977C7.45193 13.1 7.70762 13.0357 7.90574 13.1546C8.10345 13.2731 8.16727 13.5292 8.04881 13.7269L6.15764 16.879C6.0859 16.9991 5.95826 17.0746 5.81853 17.0809C5.81227 17.0813 5.80602 17.0817 5.79976 17.0817Z" fill="black"/>
<path d="M21.0168 13.9296H10.8397C10.6095 13.9296 10.4226 13.7428 10.4226 13.5125C10.4226 13.2823 10.6095 13.0954 10.8397 13.0954H21.0168C21.2474 13.0954 21.4339 13.2823 21.4339 13.5125C21.4339 13.7428 21.2474 13.9296 21.0168 13.9296Z" fill="black"/>
<path d="M16.1708 17.0817H10.8397C10.6095 17.0817 10.4226 16.8949 10.4226 16.6646C10.4226 16.4344 10.6095 16.2475 10.8397 16.2475H16.1708C16.4015 16.2475 16.5879 16.4344 16.5879 16.6646C16.5879 16.8949 16.4015 17.0817 16.1708 17.0817Z" fill="black"/>
<path d="M7.14712 32.7859H5.08326C4.55312 32.7859 4.12183 32.3546 4.12183 31.8244V29.761C4.12183 29.2309 4.55312 28.7996 5.08326 28.7996H7.14712C7.67727 28.7996 8.10856 29.2309 8.10856 29.761V31.8244C8.10814 32.3542 7.67727 32.7859 7.14712 32.7859ZM5.08326 29.6338C5.01319 29.6338 4.95604 29.6909 4.95604 29.761V31.8244C4.95604 31.8945 5.01319 31.9517 5.08326 31.9517H7.14712C7.21719 31.9517 7.27434 31.8945 7.27434 31.8244V29.761C7.27434 29.6909 7.21719 29.6338 7.14712 29.6338H5.08326Z" fill="black"/>
<path d="M21.0168 29.6338H10.8397C10.6095 29.6338 10.4226 29.4473 10.4226 29.2167C10.4226 28.986 10.6095 28.7996 10.8397 28.7996H21.0168C21.2474 28.7996 21.4339 28.986 21.4339 29.2167C21.4339 29.4473 21.2474 29.6338 21.0168 29.6338Z" fill="black"/>
<path d="M16.1708 32.7859H10.8397C10.6095 32.7859 10.4226 32.5994 10.4226 32.3688C10.4226 32.1381 10.6095 31.9517 10.8397 31.9517H16.1708C16.4015 31.9517 16.5879 32.1381 16.5879 32.3688C16.5879 32.5994 16.4015 32.7859 16.1708 32.7859Z" fill="black"/>
</svg>
